<svg width="514" height="144" viewBox="0 0 514 144" fill="none" xmlns="http://www.w3.org/2000/svg">
<path d="M74.0585 62.8281C73.8362 64.3595 72.8264 66.4399 71.668 68.2486C70.2064 70.5309 67.887 72.1294 65.2326 72.6845L53.5395 75.1296C51.6601 75.5226 49.956 76.5062 48.6765 77.9365L41.0095 86.5065C39.5685 88.1171 38.5614 87.733 38.5614 85.5728C38.544 85.6529 34.7563 95.421 44.7942 101.211C48.651 103.435 54.2029 102.636 58.0597 100.412L78.4953 88.6242C86.1379 84.216 91.5339 76.7586 93.3274 68.1261C93.3984 67.7846 93.4532 67.4419 93.5123 67.0995L74.0585 62.8281Z" fill="url(#paint0_linear_25_4993)"/>
<path d="M68.7588 51.0537C72.6157 53.2783 74.1915 56.5903 74.1915 61.0396C74.1915 61.6436 74.144 62.2404 74.0586 62.828L82.2928 66.365L93.5124 67.0993C94.9491 58.7848 92.1336 50.2265 87.0864 43.4238C83.2881 38.3045 78.4005 33.8619 72.5246 30.4726C67.7515 27.7195 62.7913 25.9055 57.8078 24.9102L52.2085 32.1612L50.4398 40.4873L68.7588 51.0537Z" fill="url(#paint1_linear_25_4993)"/>
<path d="M2.85076 57.1554C2.84867 57.162 2.85447 57.1639 2.85665 57.1573C3.28872 55.8614 3.83051 54.4156 4.50688 52.8711C8.04 44.8029 14.8485 39.4219 23.2247 36.6782C31.6009 33.9347 40.7465 34.8964 48.3804 39.2996L50.4395 40.4873L57.8075 24.9102C34.3728 20.2297 10.4218 33.9976 2.88055 57.0651C2.87695 57.0762 2.86384 57.1147 2.85076 57.1554Z" fill="url(#paint2_linear_25_4993)"/>
<path d="M57.2595 100.411C53.4026 102.636 48.6508 102.636 44.794 100.411C44.2704 100.109 43.7769 99.7697 43.3101 99.4021L36.527 104.066L30.6807 113.513C37.1698 118.913 45.5962 120.649 54.0167 119.684C60.3536 118.957 66.6484 116.949 72.5243 113.56C77.2975 110.807 81.3499 107.423 84.7045 103.608L81.2186 95.1384L75.5785 89.8447L57.2595 100.411Z" fill="url(#paint3_linear_25_4993)"/>
<path d="M43.3101 99.4019C40.3386 97.0612 38.5613 93.4711 38.5613 89.6258V89.2423V57.2168C38.5613 55.4056 39.0949 55.0978 40.6649 56.0034C38.2468 54.6086 32.6606 49.8205 25.7633 53.7989C21.9065 56.0236 18.7305 60.9342 18.7305 65.3834V88.9581C18.7305 97.7746 23.297 106.971 29.8833 112.839C30.1438 113.071 30.4135 113.29 30.6807 113.513L43.3101 99.4019Z" fill="url(#paint4_linear_25_4993)"/>
<path d="M84.2313 39.9369C84.2266 39.9318 84.2221 39.9359 84.2267 39.941C85.134 40.9629 86.1164 42.1545 87.1171 43.512C92.3444 50.6029 94.2975 59.5839 92.4878 68.2028C90.6779 76.8217 85.2715 84.2537 77.6376 88.657L75.5784 89.8447L84.7045 103.608C100.479 85.6728 100.52 58.0663 84.2946 40.0078C84.2869 39.9992 84.2601 39.9686 84.2313 39.9369Z" fill="url(#paint5_linear_25_4993)"/>
<path d="M19.5306 65.3836C19.5306 60.9343 21.9065 56.823 25.7634 54.5983C26.2869 54.2963 26.828 54.0391 27.3801 53.819L26.7291 45.6186L22.1558 36.2363C14.2301 39.1506 7.81911 45.1735 4.44584 52.9417C1.90729 58.7877 0.500029 65.2378 0.5 72.0162C0.5 77.5226 1.40765 82.7211 3.0366 87.5306L12.1217 88.7495L19.5306 86.5165V65.3836Z" fill="url(#paint6_linear_25_4993)"/>
<path d="M27.3801 53.819C30.8949 52.4184 34.8956 52.6757 38.2289 54.5983L38.5614 54.7901L65.2475 70.1827C67.1195 71.2625 66.9494 72.325 64.8336 72.7674L66.373 72.4456C68.3987 72.022 70.2494 70.9868 71.6647 69.4782C74.0981 66.8844 74.9914 63.755 74.9914 61.0393C74.9913 56.59 72.6155 52.4787 68.7586 50.2541L48.323 38.4668C40.6805 34.0585 31.5181 33.1185 23.1383 35.883C22.8068 35.9923 22.4823 36.1163 22.1559 36.2363L27.3801 53.819Z" fill="url(#paint7_linear_25_4993)"/>
<path d="M58.4666 118.957C58.4733 118.956 58.4721 118.95 58.4653 118.951C57.1259 119.225 55.6018 119.479 53.9247 119.666C45.1643 120.643 36.4026 117.843 29.8362 111.968C23.2699 106.092 19.5307 97.6985 19.5307 88.892L19.5307 86.5166L3.03665 87.5307C10.6967 110.147 34.6068 123.985 58.3735 118.976C58.3848 118.974 58.4248 118.966 58.4666 118.957Z" fill="url(#paint8_linear_25_4993)"/>
<path d="M123.386 107V37.1818H168.114V47.7841H136.034V66.7386H165.045V77.3409H136.034V107H123.386ZM191.432 37.1818V107H179.091V37.1818H191.432ZM226.963 108.023C221.849 108.023 217.418 106.898 213.668 104.648C209.918 102.398 207.009 99.25 204.94 95.2045C202.895 91.1591 201.872 86.4318 201.872 81.0227C201.872 75.6136 202.895 70.875 204.94 66.8068C207.009 62.7386 209.918 59.5795 213.668 57.3295C217.418 55.0795 221.849 53.9545 226.963 53.9545C232.077 53.9545 236.509 55.0795 240.259 57.3295C244.009 59.5795 246.906 62.7386 248.952 66.8068C251.02 70.875 252.054 75.6136 252.054 81.0227C252.054 86.4318 251.02 91.1591 248.952 95.2045C246.906 99.25 244.009 102.398 240.259 104.648C236.509 106.898 232.077 108.023 226.963 108.023ZM227.031 98.1364C229.804 98.1364 232.122 97.375 233.986 95.8523C235.849 94.3068 237.236 92.2386 238.145 89.6477C239.077 87.0568 239.543 84.1705 239.543 80.9886C239.543 77.7841 239.077 74.8864 238.145 72.2955C237.236 69.6818 235.849 67.6023 233.986 66.0568C232.122 64.5114 229.804 63.7386 227.031 63.7386C224.19 63.7386 221.827 64.5114 219.94 66.0568C218.077 67.6023 216.679 69.6818 215.747 72.2955C214.838 74.8864 214.384 77.7841 214.384 80.9886C214.384 84.1705 214.838 87.0568 215.747 89.6477C216.679 92.2386 218.077 94.3068 219.94 95.8523C221.827 97.375 224.19 98.1364 227.031 98.1364ZM271.835 107L257.04 54.6364H269.619L278.824 91.4545H279.301L288.71 54.6364H301.153L310.562 91.25H311.074L320.142 54.6364H332.756L317.926 107H305.074L295.256 71.6136H294.54L284.722 107H271.835ZM341.918 107V37.1818H354.259V63.2955H354.77C355.406 62.0227 356.304 60.6705 357.463 59.2386C358.622 57.7841 360.19 56.5455 362.168 55.5227C364.145 54.4773 366.668 53.9545 369.736 53.9545C373.781 53.9545 377.429 54.9886 380.679 57.0568C383.952 59.1023 386.543 62.1364 388.452 66.1591C390.384 70.1591 391.349 75.0682 391.349 80.8864C391.349 86.6364 390.406 91.5227 388.52 95.5455C386.634 99.5682 384.065 102.636 380.815 104.75C377.565 106.864 373.884 107.92 369.77 107.92C366.77 107.92 364.281 107.42 362.304 106.42C360.327 105.42 358.736 104.216 357.531 102.807C356.349 101.375 355.429 100.023 354.77 98.75H354.054V107H341.918ZM354.02 80.8182C354.02 84.2045 354.497 87.1705 355.452 89.7159C356.429 92.2614 357.827 94.25 359.645 95.6818C361.486 97.0909 363.713 97.7955 366.327 97.7955C369.054 97.7955 371.338 97.0682 373.179 95.6136C375.02 94.1364 376.406 92.125 377.338 89.5795C378.293 87.0114 378.77 84.0909 378.77 80.8182C378.77 77.5682 378.304 74.6818 377.372 72.1591C376.44 69.6364 375.054 67.6591 373.213 66.2273C371.372 64.7955 369.077 64.0795 366.327 64.0795C363.69 64.0795 361.452 64.7727 359.611 66.1591C357.77 67.5455 356.372 69.4886 355.418 71.9886C354.486 74.4886 354.02 77.4318 354.02 80.8182ZM401.841 107V54.6364H414.182V107H401.841ZM408.045 47.2045C406.091 47.2045 404.409 46.5568 403 45.2614C401.591 43.9432 400.886 42.3636 400.886 40.5227C400.886 38.6591 401.591 37.0795 403 35.7841C404.409 34.4659 406.091 33.8068 408.045 33.8068C410.023 33.8068 411.705 34.4659 413.091 35.7841C414.5 37.0795 415.205 38.6591 415.205 40.5227C415.205 42.3636 414.5 43.9432 413.091 45.2614C411.705 46.5568 410.023 47.2045 408.045 47.2045ZM453.02 54.6364V64.1818H422.918V54.6364H453.02ZM430.349 42.0909H442.69V91.25C442.69 92.9091 442.94 94.1818 443.44 95.0682C443.963 95.9318 444.645 96.5227 445.486 96.8409C446.327 97.1591 447.259 97.3182 448.281 97.3182C449.054 97.3182 449.759 97.2614 450.395 97.1477C451.054 97.0341 451.554 96.9318 451.895 96.8409L453.974 106.489C453.315 106.716 452.372 106.966 451.145 107.239C449.94 107.511 448.463 107.67 446.713 107.716C443.622 107.807 440.838 107.341 438.361 106.318C435.884 105.273 433.918 103.659 432.463 101.477C431.031 99.2955 430.327 96.5682 430.349 93.2955V42.0909ZM485.96 108.023C480.71 108.023 476.176 106.932 472.358 104.75C468.563 102.545 465.642 99.4318 463.597 95.4091C461.551 91.3636 460.528 86.6023 460.528 81.125C460.528 75.7386 461.551 71.0114 463.597 66.9432C465.665 62.8523 468.551 59.6705 472.256 57.3977C475.96 55.1023 480.312 53.9545 485.312 53.9545C488.54 53.9545 491.585 54.4773 494.449 55.5227C497.335 56.5455 499.881 58.1364 502.085 60.2955C504.313 62.4545 506.063 65.2045 507.335 68.5455C508.608 71.8636 509.244 75.8182 509.244 80.4091V84.1932H466.324V75.875H497.415C497.392 73.5114 496.881 71.4091 495.881 69.5682C494.881 67.7045 493.483 66.2386 491.688 65.1705C489.915 64.1023 487.847 63.5682 485.483 63.5682C482.96 63.5682 480.744 64.1818 478.835 65.4091C476.926 66.6136 475.438 68.2045 474.369 70.1818C473.324 72.1364 472.79 74.2841 472.767 76.625V83.8864C472.767 86.9318 473.324 89.5455 474.438 91.7273C475.551 93.8864 477.108 95.5455 479.108 96.7045C481.108 97.8409 483.449 98.4091 486.131 98.4091C487.926 98.4091 489.551 98.1591 491.006 97.6591C492.46 97.1364 493.722 96.375 494.79 95.375C495.858 94.375 496.665 93.1364 497.21 91.6591L508.733 92.9545C508.006 96 506.619 98.6591 504.574 100.932C502.551 103.182 499.96 104.932 496.801 106.182C493.642 107.409 490.028 108.023 485.96 108.023Z" fill="#111928"/>
<defs>
<linearGradient id="paint0_linear_25_4993" x1="60.6802" y1="95.3098" x2="70.1227" y2="62.4205" gradientUnits="userSpaceOnUse">
<stop stop-color="#1724C9"/>
<stop offset="1" stop-color="#1C64F2"/>
</linearGradient>
<linearGradient id="paint1_linear_25_4993" x1="82.4283" y1="55.2009" x2="57.5893" y2="30.4493" gradientUnits="userSpaceOnUse">
<stop stop-color="#1C64F2"/>
<stop offset="1" stop-color="#0092FF"/>
</linearGradient>
<linearGradient id="paint2_linear_25_4993" x1="48.9934" y1="39.0634" x2="11.5229" y2="41.4312" gradientUnits="userSpaceOnUse">
<stop stop-color="#0092FF"/>
<stop offset="1" stop-color="#45B2FF"/>
</linearGradient>
<linearGradient id="paint3_linear_25_4993" x1="46.4592" y1="109.988" x2="80.1097" y2="100.908" gradientUnits="userSpaceOnUse">
<stop stop-color="#1C64F2"/>
<stop offset="1" stop-color="#0092FF"/>
</linearGradient>
<linearGradient id="paint4_linear_25_4993" x1="22.3063" y1="71.0477" x2="46.1972" y2="95.8037" gradientUnits="userSpaceOnUse">
<stop stop-color="#1724C9"/>
<stop offset="1" stop-color="#1C64F2"/>
</linearGradient>
<linearGradient id="paint5_linear_25_4993" x1="76.8512" y1="88.9067" x2="93.5206" y2="55.3033" gradientUnits="userSpaceOnUse">
<stop stop-color="#0092FF"/>
<stop offset="1" stop-color="#45B2FF"/>
</linearGradient>
<linearGradient id="paint6_linear_25_4993" x1="16.5916" y1="51.3925" x2="7.67161" y2="84.9192" gradientUnits="userSpaceOnUse">
<stop stop-color="#1C64F2"/>
<stop offset="1" stop-color="#0092FF"/>
</linearGradient>
<linearGradient id="paint7_linear_25_4993" x1="62.1293" y1="49.7978" x2="29.5331" y2="57.9136" gradientUnits="userSpaceOnUse">
<stop stop-color="#1724C9"/>
<stop offset="1" stop-color="#1C64F2"/>
</linearGradient>
<linearGradient id="paint8_linear_25_4993" x1="19.7203" y1="88.0697" x2="40.4976" y2="119.324" gradientUnits="userSpaceOnUse">
<stop stop-color="#0092FF"/>
<stop offset="1" stop-color="#45B2FF"/>
</linearGradient>
</defs>
</svg>
