<svg width="474" height="144" viewBox="0 0 474 144" fill="none" xmlns="http://www.w3.org/2000/svg">
<path d="M73.5585 62.8281C73.3362 64.3595 72.3264 66.4399 71.168 68.2486C69.7064 70.5309 67.387 72.1294 64.7326 72.6845L53.0395 75.1296C51.1601 75.5226 49.456 76.5062 48.1765 77.9365L40.5095 86.5065C39.0685 88.1171 38.0614 87.733 38.0614 85.5728C38.044 85.6529 34.2563 95.421 44.2942 101.211C48.151 103.435 53.7029 102.636 57.5597 100.412L77.9953 88.6242C85.6379 84.216 91.0339 76.7586 92.8274 68.1261C92.8984 67.7846 92.9532 67.4419 93.0123 67.0995L73.5585 62.8281Z" fill="url(#paint0_linear_23_4270)"/>
<path d="M68.2588 51.0537C72.1157 53.2783 73.6915 56.5903 73.6915 61.0396C73.6915 61.6436 73.644 62.2404 73.5586 62.828L81.7928 66.365L93.0124 67.0993C94.4491 58.7848 91.6336 50.2265 86.5864 43.4238C82.7881 38.3045 77.9005 33.8619 72.0246 30.4726C67.2515 27.7195 62.2913 25.9055 57.3078 24.9102L51.7085 32.1612L49.9398 40.4873L68.2588 51.0537Z" fill="url(#paint1_linear_23_4270)"/>
<path d="M2.35076 57.1554C2.34867 57.162 2.35447 57.1639 2.35665 57.1573C2.78872 55.8614 3.33051 54.4156 4.00688 52.8711C7.54 44.8029 14.3485 39.4219 22.7247 36.6782C31.1009 33.9347 40.2465 34.8964 47.8804 39.2996L49.9395 40.4873L57.3075 24.9102C33.8728 20.2297 9.92181 33.9976 2.38055 57.0651C2.37695 57.0762 2.36384 57.1147 2.35076 57.1554Z" fill="url(#paint2_linear_23_4270)"/>
<path d="M56.7595 100.411C52.9027 102.636 48.1509 102.636 44.294 100.411C43.7705 100.109 43.2769 99.7697 42.8102 99.4021L36.0271 104.066L30.1808 113.513C36.6699 118.913 45.0963 120.649 53.5168 119.684C59.8536 118.957 66.1485 116.949 72.0244 113.56C76.7975 110.807 80.85 107.423 84.2046 103.608L80.7187 95.1384L75.0785 89.8447L56.7595 100.411Z" fill="url(#paint3_linear_23_4270)"/>
<path d="M42.8102 99.4019C39.8387 97.0612 38.0613 93.4711 38.0613 89.6258V89.2423V57.2168C38.0613 55.4056 38.595 55.0978 40.1649 56.0034C37.7469 54.6086 32.1607 49.8205 25.2634 53.7989C21.4066 56.0236 18.2306 60.9342 18.2306 65.3834V88.9581C18.2306 97.7746 22.7971 106.971 29.3833 112.839C29.6438 113.071 29.9135 113.29 30.1808 113.513L42.8102 99.4019Z" fill="url(#paint4_linear_23_4270)"/>
<path d="M83.7313 39.9369C83.7267 39.9318 83.7222 39.9359 83.7267 39.941C84.6341 40.9629 85.6165 42.1545 86.6172 43.512C91.8445 50.6029 93.7976 59.5839 91.9878 68.2028C90.178 76.8217 84.7715 84.2537 77.1376 88.657L75.0785 89.8447L84.2046 103.608C99.9792 85.6728 100.02 58.0663 83.7947 40.0078C83.7869 39.9992 83.7601 39.9686 83.7313 39.9369Z" fill="url(#paint5_linear_23_4270)"/>
<path d="M19.0306 65.384C19.0306 60.9348 21.4065 56.8234 25.2634 54.5988C25.7869 54.2968 26.328 54.0396 26.8801 53.8195L26.2291 45.6191L21.6558 36.2368C13.7301 39.1511 7.31911 45.1739 3.94584 52.9422C1.40729 58.7882 2.9376e-05 65.2383 0 72.0167C0 77.5231 0.907647 82.7216 2.5366 87.5311L11.6217 88.75L19.0306 86.517V65.384Z" fill="url(#paint6_linear_23_4270)"/>
<path d="M26.8801 53.8195C30.3949 52.4189 34.3956 52.6762 37.7289 54.5988L38.0613 54.7906L64.7475 70.1832C66.6195 71.263 66.4493 72.3255 64.3336 72.7679L65.873 72.4461C67.8987 72.0225 69.7493 70.9873 71.1646 69.4787C73.598 66.8849 74.4913 63.7555 74.4913 61.0398C74.4913 56.5905 72.1154 52.4792 68.2586 50.2546L47.823 38.4672C40.1805 34.059 31.0181 33.119 22.6383 35.8835C22.3068 35.9928 21.9823 36.1168 21.6559 36.2368L26.8801 53.8195Z" fill="url(#paint7_linear_23_4270)"/>
<path d="M57.9666 118.957C57.9733 118.956 57.9721 118.95 57.9653 118.951C56.6259 119.226 55.1018 119.48 53.4247 119.667C44.6643 120.644 35.9026 117.843 29.3362 111.968C22.7699 106.093 19.0307 97.699 19.0307 88.8925L19.0307 86.5171L2.53665 87.5311C10.1967 110.147 34.1068 123.986 57.8735 118.977C57.8848 118.974 57.9248 118.966 57.9666 118.957Z" fill="url(#paint8_linear_23_4270)"/>
<path d="M122.886 107V37.1818H168.295V47.7841H135.534V66.7386H165.943V77.3409H135.534V96.3977H168.568V107H122.886ZM215.597 126.636V98.75H215.085C214.449 100.023 213.528 101.375 212.324 102.807C211.119 104.216 209.528 105.42 207.551 106.42C205.574 107.42 203.085 107.92 200.085 107.92C195.972 107.92 192.29 106.864 189.04 104.75C185.79 102.636 183.222 99.5682 181.335 95.5455C179.449 91.5227 178.506 86.6364 178.506 80.8864C178.506 75.0682 179.46 70.1591 181.369 66.1591C183.301 62.1364 185.903 59.1023 189.176 57.0568C192.449 54.9886 196.097 53.9545 200.119 53.9545C203.188 53.9545 205.71 54.4773 207.688 55.5227C209.665 56.5455 211.233 57.7841 212.392 59.2386C213.551 60.6705 214.449 62.0227 215.085 63.2955H215.835V54.6364H227.972V126.636H215.597ZM203.528 97.7955C206.142 97.7955 208.369 97.0909 210.21 95.6818C212.051 94.25 213.449 92.2614 214.403 89.7159C215.358 87.1705 215.835 84.2045 215.835 80.8182C215.835 77.4318 215.358 74.4886 214.403 71.9886C213.472 69.4886 212.085 67.5455 210.244 66.1591C208.426 64.7727 206.188 64.0795 203.528 64.0795C200.778 64.0795 198.483 64.7955 196.642 66.2273C194.801 67.6591 193.415 69.6364 192.483 72.1591C191.551 74.6818 191.085 77.5682 191.085 80.8182C191.085 84.0909 191.551 87.0114 192.483 89.5795C193.438 92.125 194.835 94.1364 196.676 95.6136C198.54 97.0682 200.824 97.7955 203.528 97.7955ZM274.028 84.9773V54.6364H286.369V107H274.403V97.6932H273.858C272.676 100.625 270.733 103.023 268.028 104.886C265.347 106.75 262.04 107.682 258.108 107.682C254.676 107.682 251.642 106.92 249.006 105.398C246.392 103.852 244.347 101.614 242.869 98.6818C241.392 95.7273 240.653 92.1591 240.653 87.9773V54.6364H252.994V86.0682C252.994 89.3864 253.903 92.0227 255.722 93.9773C257.54 95.9318 259.926 96.9091 262.881 96.9091C264.699 96.9091 266.46 96.4659 268.165 95.5795C269.869 94.6932 271.267 93.375 272.358 91.625C273.472 89.8523 274.028 87.6364 274.028 84.9773ZM299.06 107V54.6364H311.401V107H299.06ZM305.264 47.2045C303.31 47.2045 301.628 46.5568 300.219 45.2614C298.81 43.9432 298.105 42.3636 298.105 40.5227C298.105 38.6591 298.81 37.0795 300.219 35.7841C301.628 34.4659 303.31 33.8068 305.264 33.8068C307.241 33.8068 308.923 34.4659 310.31 35.7841C311.719 37.0795 312.423 38.6591 312.423 40.5227C312.423 42.3636 311.719 43.9432 310.31 45.2614C308.923 46.5568 307.241 47.2045 305.264 47.2045ZM324.636 107V37.1818H350.818C356.182 37.1818 360.682 38.1818 364.318 40.1818C367.977 42.1818 370.739 44.9318 372.602 48.4318C374.489 51.9091 375.432 55.8636 375.432 60.2955C375.432 64.7727 374.489 68.75 372.602 72.2273C370.716 75.7045 367.932 78.4432 364.25 80.4432C360.568 82.4205 356.034 83.4091 350.648 83.4091H333.295V73.0114H348.943C352.08 73.0114 354.648 72.4659 356.648 71.375C358.648 70.2841 360.125 68.7841 361.08 66.875C362.057 64.9659 362.545 62.7727 362.545 60.2955C362.545 57.8182 362.057 55.6364 361.08 53.75C360.125 51.8636 358.636 50.3977 356.614 49.3523C354.614 48.2841 352.034 47.75 348.875 47.75H337.284V107H324.636ZM385.872 107V54.6364H397.838V63.3636H398.384C399.338 60.3409 400.974 58.0114 403.293 56.375C405.634 54.7159 408.304 53.8864 411.304 53.8864C411.986 53.8864 412.747 53.9205 413.588 53.9886C414.452 54.0341 415.168 54.1136 415.736 54.2273V65.5795C415.213 65.3977 414.384 65.2386 413.247 65.1023C412.134 64.9432 411.054 64.8636 410.009 64.8636C407.759 64.8636 405.736 65.3523 403.94 66.3295C402.168 67.2841 400.77 68.6136 399.747 70.3182C398.724 72.0227 398.213 73.9886 398.213 76.2159V107H385.872ZM444.619 108.023C439.506 108.023 435.074 106.898 431.324 104.648C427.574 102.398 424.665 99.25 422.597 95.2045C420.551 91.1591 419.528 86.4318 419.528 81.0227C419.528 75.6136 420.551 70.875 422.597 66.8068C424.665 62.7386 427.574 59.5795 431.324 57.3295C435.074 55.0795 439.506 53.9545 444.619 53.9545C449.733 53.9545 454.165 55.0795 457.915 57.3295C461.665 59.5795 464.563 62.7386 466.608 66.8068C468.676 70.875 469.71 75.6136 469.71 81.0227C469.71 86.4318 468.676 91.1591 466.608 95.2045C464.563 99.25 461.665 102.398 457.915 104.648C454.165 106.898 449.733 108.023 444.619 108.023ZM444.688 98.1364C447.46 98.1364 449.778 97.375 451.642 95.8523C453.506 94.3068 454.892 92.2386 455.801 89.6477C456.733 87.0568 457.199 84.1705 457.199 80.9886C457.199 77.7841 456.733 74.8864 455.801 72.2955C454.892 69.6818 453.506 67.6023 451.642 66.0568C449.778 64.5114 447.46 63.7386 444.688 63.7386C441.847 63.7386 439.483 64.5114 437.597 66.0568C435.733 67.6023 434.335 69.6818 433.403 72.2955C432.494 74.8864 432.04 77.7841 432.04 80.9886C432.04 84.1705 432.494 87.0568 433.403 89.6477C434.335 92.2386 435.733 94.3068 437.597 95.8523C439.483 97.375 441.847 98.1364 444.688 98.1364Z" fill="#111928"/>
<defs>
<linearGradient id="paint0_linear_23_4270" x1="60.1802" y1="95.3098" x2="69.6227" y2="62.4205" gradientUnits="userSpaceOnUse">
<stop stop-color="#1724C9"/>
<stop offset="1" stop-color="#1C64F2"/>
</linearGradient>
<linearGradient id="paint1_linear_23_4270" x1="81.9283" y1="55.2009" x2="57.0893" y2="30.4493" gradientUnits="userSpaceOnUse">
<stop stop-color="#1C64F2"/>
<stop offset="1" stop-color="#0092FF"/>
</linearGradient>
<linearGradient id="paint2_linear_23_4270" x1="48.4934" y1="39.0634" x2="11.0229" y2="41.4312" gradientUnits="userSpaceOnUse">
<stop stop-color="#0092FF"/>
<stop offset="1" stop-color="#45B2FF"/>
</linearGradient>
<linearGradient id="paint3_linear_23_4270" x1="45.9593" y1="109.988" x2="79.6098" y2="100.908" gradientUnits="userSpaceOnUse">
<stop stop-color="#1C64F2"/>
<stop offset="1" stop-color="#0092FF"/>
</linearGradient>
<linearGradient id="paint4_linear_23_4270" x1="21.8063" y1="71.0477" x2="45.6973" y2="95.8037" gradientUnits="userSpaceOnUse">
<stop stop-color="#1724C9"/>
<stop offset="1" stop-color="#1C64F2"/>
</linearGradient>
<linearGradient id="paint5_linear_23_4270" x1="76.3513" y1="88.9067" x2="93.0207" y2="55.3033" gradientUnits="userSpaceOnUse">
<stop stop-color="#0092FF"/>
<stop offset="1" stop-color="#45B2FF"/>
</linearGradient>
<linearGradient id="paint6_linear_23_4270" x1="16.0916" y1="51.393" x2="7.17161" y2="84.9197" gradientUnits="userSpaceOnUse">
<stop stop-color="#1C64F2"/>
<stop offset="1" stop-color="#0092FF"/>
</linearGradient>
<linearGradient id="paint7_linear_23_4270" x1="61.6292" y1="49.7983" x2="29.033" y2="57.9141" gradientUnits="userSpaceOnUse">
<stop stop-color="#1724C9"/>
<stop offset="1" stop-color="#1C64F2"/>
</linearGradient>
<linearGradient id="paint8_linear_23_4270" x1="19.2203" y1="88.0702" x2="39.9976" y2="119.324" gradientUnits="userSpaceOnUse">
<stop stop-color="#0092FF"/>
<stop offset="1" stop-color="#45B2FF"/>
</linearGradient>
</defs>
</svg>
